<svg xmlns="http://www.w3.org/2000/svg" viewBox="0 0 583.26 506.3"><defs><style>.cls-1{fill:#9d1b26;}.cls-2{fill:#9e1d27;}</style></defs><g id="Capa_2" data-name="Capa 2"><g id="Capa_1-2" data-name="Capa 1"><path class="cls-1" d="M447.38,239.92c-8,7.05-15.56,14.63-24,21a64.87,64.87,0,0,1-34.72,12.94c-21.69,1.64-38.75-11.6-42.54-33.05-3.53-19.92.9-38.39,9.55-56.2,20.33-41.88,51.69-72.4,94.43-90.89,16.57-7.17,34-9.15,51.74-4.92,15.35,3.67,24.55,14,25,28.87.6,21.6-15.88,41.19-39.44,41a18.74,18.74,0,0,1-7.77-2.15c-4.27-2.09-4.56-4.77-1.3-8.21,3.67-3.87,7.55-7.56,11-11.6A37.61,37.61,0,0,0,498,119.31c1.34-6.93-2-11-9.09-11.32a45.64,45.64,0,0,0-23.46,4.85c-39.91,20.87-67.17,52.57-80.74,95.67a46.5,46.5,0,0,0-1.41,22.1c2.14,12.25,10.52,18,22.83,15.81s22.5-8.79,31.92-16.68a189.1,189.1,0,0,0,38.09-43.6c6.16-9.66,12.21-11.63,24.2-5.1a36.22,36.22,0,0,1,4.45,3.35c2.92,2.24,3.54,4.72,1.38,8-1.73,2.64-2.91,5.63-4.62,9,2.43-.54,4.2-1,6-1.31,6.1-1.07,11.81-.37,15.86,4.84s3.84,11,.89,16.49c-6.21,11.55-16.3,16.89-29.22,17.19-1.73.05-3.46-.22-5.69-.37a46.26,46.26,0,0,0-.89,6.07c-.09,4.76,3.21,7.94,7.87,7A53.69,53.69,0,0,0,510,246.77c15.25-7.93,25.18-21.24,34.65-35.15-6.63-1.88-7-2.59-6.32-7.57.35-2.48,1.67-3.11,3.73-3.11,1.61,0,3.22.17,4.83.24,3.55.16,6-1.47,8.08-4.33,4.35-5.87,8.86-11.64,13.68-17.13,1.2-1.36,4.27-2.5,5.7-1.9,2.54,1.07,4.71,3.37,6.52,5.58.45.56-.81,2.93-1.73,4.12-3.31,4.28-6.81,8.41-10.88,13.39,4.13,0,7.29-.09,10.44.05,1.15,0,3.07.41,3.25,1a4.35,4.35,0,0,1-.84,3.67,26.58,26.58,0,0,1-5.6,3.9,5,5,0,0,1-2.93.37c-8.48-1.17-13.32,3.21-16.58,10.44s-7,14.19-10,21.48c-.82,2,.12,4.65.26,7,2.24-.31,4.74-.09,6.69-1a72.1,72.1,0,0,0,23-18c2.45-2.78,4.49-3.29,7.27-1v3.72c-7,6.65-13.69,13.64-21,19.84-6.44,5.41-13.5,10.16-22.36,11-8,.78-11.47-2.33-11-10.34.24-3.94.94-7.86,1.44-11.78-.3-.27-.6-.54-.91-.8-2.79,3.08-5.36,6.39-8.41,9.2-7.61,7-16.28,11.95-26.74,13.7-7.65,1.28-14.26-.12-20.74-6.18-7.8,19.74-15.41,38.88-22.93,58.07-1.44,3.68-2.51,7.5-3.81,11.24s-3.4,5-7.38,4.71c-14.83-1.25-23.86-14.86-19.09-29.27a318.51,318.51,0,0,1,24.47-55.32c1.15-2.05,2.18-4.17,3.26-6.26,0-.38,0-.76,0-1.13Zm44.39-7.6c10.14.37,23.79-15.07,22.08-24.7C506.28,209.18,496.09,220.51,491.77,232.32Z"/><path class="cls-2" d="M307.34,0c3,2,5.43,4.3,5,8.28a7.69,7.69,0,0,1-14.64,2.47,7.6,7.6,0,0,1,2.41-9.32c.64-.5,1.32-.95,2-1.43Z"/><path class="cls-1" d="M183.47,242.24c-3.2,2.7-6.45,5.35-9.59,8.13-7.07,6.26-14.9,11.07-24.84,13.12,1.25.91,2.08,1.58,3,2.15,14.62,9.34,28.87,19.41,45.31,25.44a102.87,102.87,0,0,0,18.61,5c3.77.62,7.88-.3,11.76-1,4.81-.82,7.05.76,6.48,5.58a19,19,0,0,1-2.29,7.37c-9.23,15.11-21.77,25.05-40.48,24.45-8.64-.28-16.43-3.48-23.77-7.86-12.16-7.24-22.46-16.76-32.55-26.53-12-11.66-24-23.39-36.13-35.23-2.77,2-5.42,4.05-8.14,6-19.73,13.92-41.4,19.5-65.23,14.38-10.74-2.31-19.78-7.55-24-18.52s-.09-23.58,10.12-32.79c11.71-10.56,25.84-13,40.92-12.24,12.8.64,24.82,4.41,36.89,9.46l9.08-14.38c-4.72-2.5-9.39-4.54-13.6-7.28-17.6-11.44-26.35-28-26.54-48.79-.16-17.18,15.21-31.94,32.38-31.94,5.54,0,6.9,1.74,5.18,7.18a68.35,68.35,0,0,0-2.73,31.23c1.79,11.85,6.65,22,16.5,29.7.77-1.28,1.47-2.39,2.11-3.54,13.49-24.28,26.92-48.6,43.66-70.91,10.16-13.53,21.89-25,37.94-31.36,13-5.14,25.63-5.48,37.6,2.79,8.87,6.12,13.36,14.78,14.3,25.36,1.13,12.6-1.82,24.4-7.42,35.6-9.36,18.75-21.83,34.89-39.48,46.62-.29.2-.58.42-1,.69,4.94,1.77,7.4,1.14,10.36-2.49,4.79-5.88,9.59-11.73,14.34-17.64,1.52-1.89,3.5-3.52,5.7-2.23a28.4,28.4,0,0,1,6.66,6c.37.41-.69,2.46-1.47,3.46-3.39,4.35-6.92,8.6-11.09,13.74,4.3,0,7.59-.11,10.86,0s4.23,1.62,2.22,4.18a13.05,13.05,0,0,1-6.09,4.29,31.39,31.39,0,0,1-9.21.89,6.07,6.07,0,0,0-6,3.49c-4.32,8.23-8.84,16.36-13,24.68a20.71,20.71,0,0,0-1.65,7.54c-.23,3,1.33,4.23,4.14,3,10.33-4.46,20.06-9.7,25.34-20.54,1-2,3-3.6,4.64-5.23,2.11-2.05,3.36-1.34,4.09,1.37,1.9,7.06,3.56,14.21,6,21.06a34.78,34.78,0,0,0,6.45,10.68c4.46,5.11,11,4.79,14.41-1a46.33,46.33,0,0,0,5.78-15.08c2-10.85,3-21.87,4.44-32.82.12-.95,0-1.93,0-3.93-1.5,1.49-2.42,2.33-3.26,3.26-5.52,6.06-11,12.16-16.51,18.22-3.34,3.67-4.9,3.85-8.08,1.07s-3.43-4.43-.47-8.15q15.79-19.81,31.61-39.61c1.62-2,3-4.27,4.5-6.38a6.73,6.73,0,0,1,7.14-2.87c7.25,1.33,12.77,5.37,16.9,11.24a5.8,5.8,0,0,1,.25,5.13c-7,11.57-8.4,24.5-9.58,37.51-.8,8.88-1.54,17.78-2.38,27.38,2.26-1.53,4.34-2.58,6-4.1,8.24-7.7,16.46-15.44,24.51-23.33,3.49-3.42,5.28-4.13,7.84-2,3.31,2.73,3.49,5.64.49,9.32C321.33,245.09,308,258.71,292,269.58c-8.2,5.6-16.95,9.77-27.16,10.08a29,29,0,0,1-24.73-11.32,62.33,62.33,0,0,1-12.19-26c-3.37,2.83-6.33,5.66-9.63,8q-8,5.7-16.44,10.81a22.09,22.09,0,0,1-6.95,2.52c-7.52,1.55-12.27-2.05-12.42-9.71-.07-3.8.84-7.61,1.3-11.42l.09-.88ZM145,202.32l.52,1.31c5-1.73,10.28-2.8,14.81-5.31,29-16,47.73-40.45,56.72-72.2,1.4-4.94,1.33-10.57.73-15.74-.67-5.68-5.76-8.24-11.18-6.16-2.94,1.12-6.12,2.67-8.11,5-4.68,5.4-9.47,11-12.88,17.18C171.79,151.54,158.48,177,145,202.32Zm-66.62,43a43.58,43.58,0,0,0-19.26-8.86c-12.55-2.2-24.67,5.1-27.94,16.71-2.35,8.34,2.17,15.09,10.78,14.92A38.51,38.51,0,0,0,55.86,265C65.25,261,71.62,253.23,78.37,245.34ZM143,238.51c-.42,3.75-2.24,7.72,1,10.88s7,2.09,10.84.91c13.76-4.21,24-13.12,32.82-24,3.66-4.56,7-9.37,11.08-14.82-5.58-.05-7.48-2.91-7.68-7.31l-11,5.56C182.56,224.69,162.81,242.47,143,238.51Zm22.58-22.67c-8.35-1.13-18.27,7.08-19.93,16.5C153.33,232,163.68,223.46,165.61,215.84Z"/><path class="cls-1" d="M451,380.07c4.18-3.9,8.06-8.17,12.61-11.57a39.71,39.71,0,0,1,12.32-6.45c7.16-2.09,13.1,2.49,13.23,10a32.25,32.25,0,0,1-2,12.34c-6.26,15.58-16,28.54-30.63,37.27A38.7,38.7,0,0,1,444,426.21c-10,1.89-19-5.68-19.67-16-.12-1.72,0-3.45,0-5.45-7.46,1.57-14.7,2.07-20.28,8.63-6.62,7.78-15.4,12.58-26.18,11.87-8.69-.57-13.47-5.64-14-14.32a4.67,4.67,0,0,0-.75-2.8q-1.46,2.24-2.9,4.47c-16.41,25.54-35.48,48.81-59.1,68.05-14.3,11.64-30.2,20.39-48.41,24.34a45.41,45.41,0,0,1-21.4,0c-16.85-4.42-25.29-19.45-20.46-36.21,3.47-12.06,11.24-21.1,20.35-29.2,22.65-20.13,49.09-33.41,77.64-42.82,8.59-2.83,17.27-5.36,25.87-8.17A7.3,7.3,0,0,0,338.6,386C349.22,368.66,359.28,351,364.22,331A58.82,58.82,0,0,0,366,314.82c-.33-9.12-5.42-13-14.45-12.41A57.37,57.37,0,0,0,328.5,309c-25.89,13.6-47.95,31.73-65.2,55.49a32.78,32.78,0,0,1-2.52,3.22c-2.53,2.72-4.88,3-7.87.81-6.4-4.67-8.56-11-7.1-18.67,2.31-12.17,9.68-21.29,18.2-29.63,19.82-19.42,43.26-31.74,70.83-35.82a68.68,68.68,0,0,1,28.78,1.38c18.05,5,28,18,29.12,38.13.73,12.9-2.78,25-6.9,37-1.23,3.59-2.62,7.13-3.94,10.7.44.17.77.38.85.31,6.07-5.54,13.83-7.4,21.31-9.91,10.33-3.45,19.49,4.25,18.36,16.07-.47,5-2.33,9.81-3.67,14.68a39.19,39.19,0,0,1-2,4.72,18.39,18.39,0,0,0,14.31-11.2,193.69,193.69,0,0,1,25.62-42.18,45.84,45.84,0,0,1,5-5.48c3.93-3.48,8.34-3,11.74,1,2.09,2.48,1.94,4.5-.11,7.2-7.47,9.89-14.64,20-21.9,30.06a15.16,15.16,0,0,0-1.17,2.31l-1.15,1.42.38.4Zm-126.9,29.32a8.81,8.81,0,0,0-1.74,0c-17.74,5.75-34.88,12.85-50.73,22.8-11.82,7.42-23.39,15.26-31.41,27a33,33,0,0,0-5,12.88c-.9,5.37,1.64,7.23,7.25,7,8.64-.33,16-4,23-8.64C289.5,454.64,306.32,432,324.08,409.39ZM474.4,370.68c-3,1.26-5.06,1.65-6.53,2.82A116.48,116.48,0,0,0,438,408.28c-.66,1.19-.57,3.73.26,4.58,1.08,1.11,3.28,1.59,5,1.51a8.42,8.42,0,0,0,4.32-2c11.46-8.93,20.57-19.73,25.75-33.47C474.12,376.7,474,374.14,474.4,370.68Zm-74.26,33.08c-5.89-5.55-8.6-12.5-9-21a46.05,46.05,0,0,0-9.9,23.39c-.6,5,1.42,6.95,6.42,6.18C393.05,411.45,396.65,408,400.14,403.76Zm6.54-8.09c1.75-4.08,3.54-7.62,4.77-11.35a14,14,0,0,0,.71-7.29c-.56-2.25-2.19-5.14-4.1-5.9s-5,.21-7.05,1.39c-2.88,1.67-3.73,4.75-3.21,8.14C398.72,386.56,401.48,391.37,406.68,395.67Z"/><path class="cls-2" d="M214.35,377.7c1.11-1.13,2.08-2.08,3-3.06,4.08-4.22,11.22-2.9,12.95,2.69.46,1.49-.66,3.74-1.57,5.35-5.22,9.25-10.72,18.36-15.83,27.67-1.17,2.14-1.18,4.91-1.73,7.38l1,.88c2.05-1.12,4.41-1.89,6.08-3.42,5.6-5.09,11-10.44,16.41-15.7,1.45-1.39,2.81-3.11,5-1,1.85,1.78,2,3.8.25,5.57-8.08,8.2-16,16.6-24.55,24.28-3.15,2.83-7.76,4.36-12,5.62-4.87,1.47-8.47-1.28-8.72-6.32-.2-4.25.31-8.52.51-13-5.45,5.41-10.67,10.83-16.16,16-3.79,3.55-8.52,4.4-13.55,3.26-4.32-1-6.52-3.78-6.56-8.23-.18-20.38,10-35.39,25.33-47.32,4.18-3.24,9.42-5.46,14.51-7.12C207.38,368.37,209.64,369.6,214.35,377.7Zm-38.62,39.89c.46.88,1.18,2.68,1.39,2.62,1.59-.44,3.56-.84,4.54-2,9.07-10.65,18-21.44,26.9-32.23a3.75,3.75,0,0,0-.59-5.64,6.6,6.6,0,0,0-5.18-.76,15.65,15.65,0,0,0-5.56,3.58,76.18,76.18,0,0,0-20.62,31.35C176.28,415.44,176.07,416.4,175.73,417.59Z"/><path class="cls-2" d="M240.77,177a21,21,0,0,1,1.51-4.12,65.24,65.24,0,0,1,22.88-23.36c4.49-2.73,8.48-2.55,11.24.32,1.51,1.58,2.21,3.19.29,5.1-8.25,8.22-14.08,18.14-19.88,28.1-1.46,2.51-2.08,6.17-6.44,5.37-4.88-.9-8.78-4.46-9.41-8.78C240.86,179,240.86,178.37,240.77,177Z"/><path class="cls-2" d="M246.76,22.25a7.86,7.86,0,0,1-7.9-7.32,7.86,7.86,0,0,1,7.57-8,7.68,7.68,0,1,1,.33,15.36Z"/><path class="cls-2" d="M199.61,35.34a7.91,7.91,0,0,1-7.86,7.77,7.77,7.77,0,0,1-7.46-7.71,7.66,7.66,0,1,1,15.32-.06Z"/><path class="cls-2" d="M370.73,486.06a7.47,7.47,0,0,1-7.9,7.52,7.66,7.66,0,0,1,.28-15.31A7.45,7.45,0,0,1,370.73,486.06Z"/><path class="cls-2" d="M370.58,14.54a8,8,0,0,1-7.58,7.7,7.92,7.92,0,0,1-7.92-7.7,7.92,7.92,0,0,1,7.54-7.7A8,8,0,0,1,370.58,14.54Z"/><path class="cls-2" d="M105.05,395.91a7.77,7.77,0,0,1,0-15.53,7.9,7.9,0,0,1,7.66,8A7.82,7.82,0,0,1,105.05,395.91Z"/><path class="cls-2" d="M425.17,35.37a7.66,7.66,0,1,1-7.75-7.79A7.76,7.76,0,0,1,425.17,35.37Z"/><path class="cls-2" d="M70.2,336.18a7.39,7.39,0,0,1,7.62-7.38,7.59,7.59,0,0,1,7.69,7.79,7.87,7.87,0,0,1-7.72,7.5A7.61,7.61,0,0,1,70.2,336.18Z"/><path class="cls-2" d="M143.82,76.18a7.38,7.38,0,0,1-7.65-7.69,7.64,7.64,0,0,1,15.27,0A7.34,7.34,0,0,1,143.82,76.18Z"/><path class="cls-2" d="M417.72,472.76a7.67,7.67,0,1,1,.21-15.34,7.67,7.67,0,1,1-.21,15.34Z"/><path class="cls-2" d="M531.91,343.84a7.4,7.4,0,0,1-7.56-7.48,7.55,7.55,0,0,1,7.55-7.92,7.84,7.84,0,0,1,7.69,7.53A7.71,7.71,0,0,1,531.91,343.84Z"/></g></g></svg>