<svg id="Logo" xmlns="http://www.w3.org/2000/svg" viewBox="0 0 419.31 512.45"><defs><style>.cls-1{fill:#fff;stroke:#9e0b22;stroke-miterlimit:10;stroke-width:5px;}.cls-2{isolation:isolate;}.cls-3,.cls-4{fill:#9e0b22;}.cls-3{fill-rule:evenodd;}</style></defs><g id="Base"><path id="Engranaje" class="cls-1" d="M267.53,485.25l33.58,3.69,36,50.51L393,523.07l4-62.21L432.91,432,494,441.94l28.29-51.28L481.4,344.13c2.11-18.28,3.17-27.52,5.27-45.8l50.47-36.48c-7.95-28-8-28.11-15.93-56.15l-61.85-3.59-28.47-35.93,10.26-61.51L390.32,76.55,343.78,118l-35.88-3.94Z" transform="translate(-120.71 -29.9)"/><circle id="Circulo" class="cls-1" cx="179.29" cy="270.6" r="120"/></g><g id="Silueta"><g class="cls-2"><path class="cls-3" d="M372.34,396.14V302.63h6V296.2h-6V283.35h3s0-10.7-9-10.7V256.22h-3.73v16.43s-8.19,0-8.19,9.27h3.72v13.57h-7.46V261.22H353v-4.28h-7.46V186.25h3.73v-5.71h-6v-43.2l4.48-3.53v-4.38L344,125.85s-2.24-22.13-19.4-24.27c0,0,3.73-2.85,3.73-10,0-6.43-3.73-11.42-11.18-12.85,7.45-1.42,4.47-13.56,4.47-13.56,11.19-2.14,6,3.57,14.92,2.14,3,0-2.24-4.28-4.47-5.71-2.25-.71-11.19,0-11.19,0V59.1c.74-5-3-8.56-3-8.56,3-1.43.75-7.86-2.23-7.13-2.24,0-3.73,7.84-3.73,7.84-3.72-.71-6-8.57-6-8.57V29.9h-2.24V42.75h-5.21c-5.22,0-10.45,5.66-10.45,11.31,0,4.94,0,10.6,9,14.13C306,71,309,69.6,309,69.6c-14.19,9.18-1.49,9.18-1.49,9.18C300,80.2,297,85.14,297,91.5c0,7.08,3,9.9,3,9.9-17.17,2.12-19.4,24-19.4,24l-3,3.54v4.95l3.73,3.53v43.1h-5.22v5.71h3v70.69h-7.46v4.28h3v34.27h-7.46V281.92h3c0-9.27-8.2-9.27-8.2-9.27V256.22h-3.73v16.43c-8.21,0-8.21,10.7-8.21,10.7h3V296.2h-6v6.43h6v58.85c0,.15,0,.31,0,.46s0,.36,0,.54v80.57l-.1,0,0,3.22c.06,5.66.07,11.31.07,17s0,11.26-.07,16.88v0c0,.15-.1,7.13-.17,7.12h0q0,5.28,0,10.56c0,1.21-.14,11.61-.21,18.32" transform="translate(-120.71 -29.9)"/><line class="cls-4" x1="131.86" y1="486.2" x2="132.73" y2="486.2"/></g></g><g id="Texto"><g id="LG_Seville" data-name="LG Seville"><path class="cls-4" d="M193.44,407l-10-10.28,4.54-4.4,15.71,16.18-24.49,23.76-5.73-5.9Z" transform="translate(-120.71 -29.9)"/><path class="cls-4" d="M168,370a13.22,13.22,0,0,1,5.89,2.77,24,24,0,0,1,5.48,6q3.68,5.61,2.46,11.21t-7.19,9.85l-2.45,1.64a20.37,20.37,0,0,1-8.33,3.35,13.31,13.31,0,0,1-7.64-1.08,14.49,14.49,0,0,1-5.91-5.3q-3.51-5.33-3-9.88t5-8.22l4.36,6.62a6.5,6.5,0,0,0-2.41,3.77,6,6,0,0,0,1.17,4,5.38,5.38,0,0,0,4.82,2.55c2.08,0,4.49-.92,7.21-2.69l1.72-1.13c2.85-1.87,4.67-3.77,5.46-5.68a6.16,6.16,0,0,0-.88-6,6.89,6.89,0,0,0-3.82-3.21l-4.42,2.91,3.14,4.78-4.72,3.1-7.66-11.65Z" transform="translate(-120.71 -29.9)"/><path class="cls-4" d="M151.05,338a3.41,3.41,0,0,0-2.34,2,16,16,0,0,0-.76,4.89,42,42,0,0,1-.54,5.63q-1.29,7.27-6.76,8.86a8,8,0,0,1-5.26-.2,10.75,10.75,0,0,1-4.55-3.55,18.25,18.25,0,0,1-3-6.2,15.92,15.92,0,0,1-.57-6.7,10.45,10.45,0,0,1,2.33-5.39,9.74,9.74,0,0,1,4.88-3.1l2.28,7.88a4.15,4.15,0,0,0-2.76,2.13,5,5,0,0,0-.14,3.64,5.68,5.68,0,0,0,1.9,3.07,2.87,2.87,0,0,0,4.63-1.47,17.8,17.8,0,0,0,.74-5.37,30.1,30.1,0,0,1,.74-6.26q1.52-6.19,6.9-7.76a8.32,8.32,0,0,1,7.69,1.29q3.41,2.53,5,8.18a18.35,18.35,0,0,1,.66,7.63,11.29,11.29,0,0,1-2.51,6,10.6,10.6,0,0,1-5.26,3.29L152,348.54a5.23,5.23,0,0,0,3.49-2.49q.85-1.73,0-4.79a5.36,5.36,0,0,0-1.74-2.85A2.94,2.94,0,0,0,151.05,338Z" transform="translate(-120.71 -29.9)"/><path class="cls-4" d="M140.73,303.84l1.13,12.89L150,316l-1.34-15.22,6.3-.56L157,323.66l-34,3L121,303.18l6.32-.55,1.34,15.27,7.17-.63-1.13-12.89Z" transform="translate(-120.71 -29.9)"/><path class="cls-4" d="M147.14,283.06l-24-9.46,1-9.14,32.67,15.14-1,8.94-35.16,7.61,1-9.06Z" transform="translate(-120.71 -29.9)"/><path class="cls-4" d="M161.76,257.51l-2.17,7.91-32.9-9.05,2.17-7.91Z" transform="translate(-120.71 -29.9)"/><path class="cls-4" d="M160.73,241.85l5.7-13.14,5.81,2.52-9,20.68L132,238.33l3.27-7.55Z" transform="translate(-120.71 -29.9)"/><path class="cls-4" d="M173.23,218.07l7.93-11.92,5.27,3.51-12.49,18.77-28.41-18.92,4.56-6.84Z" transform="translate(-120.71 -29.9)"/><path class="cls-4" d="M192.81,181.91l-9,9.32,5.88,5.66,10.6-11,4.56,4.39L188.55,207.2,164,183.52l16.35-17L184.9,171l-10.63,11,5.18,5,9-9.32Z" transform="translate(-120.71 -29.9)"/></g></g></svg>